<?xml version="1.0" encoding="utf-8"?><svg xmlns="http://www.w3.org/2000/svg" xmlns:xlink="http://www.w3.org/1999/xlink" width="1164" height="508" preserveAspectRatio="xMidYMid" viewBox="0 0 1164 508" style="z-index:1;margin-right:-1.21212px;display:block;background-repeat-y:initial;background-repeat-x:initial;background-color:rgb(0, 0, 0);" ><g transform="translate(582,254) scale(1,1) translate(-582,-254)" style="transform:matrix(1, 0, 0, 1, 0, 0);" ><circle cx="0" cy="0" r="1270.0236218275627" fill="#390021" fill-opacity="0.4" transform="matrix(0.9950000047683716,0,0,0.9950000047683716,0,0)" style="transform:matrix(0.995, 0, 0, 0.995, 0, 0);" ></circle>
<circle cx="0" cy="0" r="1154.5669289341479" fill="#48133c" fill-opacity="0.4" transform="matrix(0.9957138299942017,0,0,0.9957138299942017,0,0)" style="transform:matrix(0.995714, 0, 0, 0.995714, 0, 0);" ></circle>
<circle cx="0" cy="0" r="1039.110236040733" fill="#542859" fill-opacity="0.4" transform="matrix(0.99781733751297,0,0,0.99781733751297,0,0)" style="transform:matrix(0.997817, 0, 0, 0.997817, 0, 0);" ></circle>
<circle cx="0" cy="0" r="923.6535431473184" fill="#5b3d77" fill-opacity="0.4" transform="matrix(1.0007541179656982,0,0,1.0007541179656982,0,0)" style="transform:matrix(1.00075, 0, 0, 1.00075, 0, 0);" ></circle>
<circle cx="0" cy="0" r="808.1968502539036" fill="#5c5494" fill-opacity="0.4" transform="matrix(1.0033912658691406,0,0,1.0033912658691406,0,0)" style="transform:matrix(1.00339, 0, 0, 1.00339, 0, 0);" ></circle>
<circle cx="0" cy="0" r="692.7401573604886" fill="#576bb0" fill-opacity="0.4" transform="matrix(1.004823923110962,0,0,1.004823923110962,0,0)" style="transform:matrix(1.00482, 0, 0, 1.00482, 0, 0);" ></circle>
<circle cx="0" cy="0" r="577.2834644670739" fill="#4b84c9" fill-opacity="0.4" transform="matrix(1.004823923110962,0,0,1.004823923110962,0,0)" style="transform:matrix(1.00482, 0, 0, 1.00482, 0, 0);" ></circle>
<circle cx="0" cy="0" r="461.8267715736592" fill="#359cde" fill-opacity="0.4" transform="matrix(1.0033912658691406,0,0,1.0033912658691406,0,0)" style="transform:matrix(1.00339, 0, 0, 1.00339, 0, 0);" ></circle>
<circle cx="0" cy="0" r="346.3700786802443" fill="#03b5ee" fill-opacity="0.4" transform="matrix(1.0007541179656982,0,0,1.0007541179656982,0,0)" style="transform:matrix(1.00075, 0, 0, 1.00075, 0, 0);" ></circle>
<circle cx="0" cy="0" r="230.9133857868296" fill="#00cef9" fill-opacity="0.4" transform="matrix(0.9978172779083252,0,0,0.9978172779083252,0,0)" style="transform:matrix(0.997817, 0, 0, 0.997817, 0, 0);" ></circle>
<circle cx="0" cy="0" r="115.4566928934148" fill="#00e7fe" fill-opacity="0.4" transform="matrix(0.9957138299942017,0,0,0.9957138299942017,0,0)" style="transform:matrix(0.995714, 0, 0, 0.995714, 0, 0);" ></circle>
<circle cx="0" cy="0" r="0" fill="#00ffff" fill-opacity="0.4" transform="matrix(0.9950000047683716,0,0,0.9950000047683716,0,0)" style="transform:matrix(0.995, 0, 0, 0.995, 0, 0);" ></circle></g></svg>