<?xml version="1.0" encoding="utf-8"?><svg xmlns="http://www.w3.org/2000/svg" xmlns:xlink="http://www.w3.org/1999/xlink" width="1164" height="508" preserveAspectRatio="xMidYMid" viewBox="0 0 1164 508" style="z-index:1;margin-right:-1.21212px;display:block;background-repeat-y:initial;background-repeat-x:initial;background-color:rgb(119, 0, 70);" ><g transform="translate(582,254) scale(1,1) translate(-582,-254)" style="transform:matrix(1, 0, 0, 1, 0, 0);" ><linearGradient id="ldb-5qhpazxj4jr-lg" x1="0" x2="0" y1="1" y2="0" style="" ><stop stop-color="#572a57" offset="0" style="" ></stop>

  
<stop stop-color="#00ffff" offset="1" style="" ></stop></linearGradient>
<g transform="translate(940.7509658364075 211.2153903730101)" style="transform:matrix(1, 0, 0, 1, 940.751, 211.215);" ><circle cx="0" cy="0" r="488.88" fill="url(#ldb-5qhpazxj4jr-lg)" fill-opacity="0.4" transform="matrix(0.9950000047683716,0,0,0.9950000047683716,0,0)" style="transform:matrix(0.995, 0, 0, 0.995, 0, 0);" ></circle></g>
<g transform="translate(816.4869626816103 105.75725695501586)" style="transform:matrix(1, 0, 0, 1, 816.487, 105.757);" ><circle cx="0" cy="0" r="488.88" fill="url(#ldb-5qhpazxj4jr-lg)" fill-opacity="0.4" transform="matrix(0.9985862970352173,0,0,0.9985862970352173,0,0)" style="transform:matrix(0.998586, 0, 0, 0.998586, 0, 0);" ></circle></g>
<g transform="translate(663.4907362588885 49.58684584320196)" style="transform:matrix(1, 0, 0, 1, 663.491, 49.5868);" ><circle cx="0" cy="0" r="488.88" fill="url(#ldb-5qhpazxj4jr-lg)" fill-opacity="0.4" transform="matrix(1.0038659572601318,0,0,1.0038659572601318,0,0)" style="transform:matrix(1.00387, 0, 0, 1.00387, 0, 0);" ></circle></g>
<g transform="translate(500.5092637411115 49.5868458432019)" style="transform:matrix(1, 0, 0, 1, 500.509, 49.5868);" ><circle cx="0" cy="0" r="488.88" fill="url(#ldb-5qhpazxj4jr-lg)" fill-opacity="0.4" transform="matrix(1.0038659572601318,0,0,1.0038659572601318,0,0)" style="transform:matrix(1.00387, 0, 0, 1.00387, 0, 0);" ></circle></g>
<g transform="translate(347.51303731838976 105.7572569550158)" style="transform:matrix(1, 0, 0, 1, 347.513, 105.757);" ><circle cx="0" cy="0" r="488.88" fill="url(#ldb-5qhpazxj4jr-lg)" fill-opacity="0.4" transform="matrix(0.9985862970352173,0,0,0.9985862970352173,0,0)" style="transform:matrix(0.998586, 0, 0, 0.998586, 0, 0);" ></circle></g>
<g transform="translate(223.24903416359246 211.21539037301017)" style="transform:matrix(1, 0, 0, 1, 223.249, 211.215);" ><circle cx="0" cy="0" r="488.88" fill="url(#ldb-5qhpazxj4jr-lg)" fill-opacity="0.4" transform="matrix(0.9950000047683716,0,0,0.9950000047683716,0,0)" style="transform:matrix(0.995, 0, 0, 0.995, 0, 0);" ></circle></g></g></svg>