<?xml version="1.0" encoding="utf-8"?><svg xmlns="http://www.w3.org/2000/svg" xmlns:xlink="http://www.w3.org/1999/xlink" width="1164" height="508" preserveAspectRatio="xMidYMid" viewBox="0 0 1164 508" style="z-index:1;margin-right:-1.21212px;display:block;background-repeat-y:initial;background-repeat-x:initial;background-color:rgb(255, 255, 255);animation-play-state:paused" ><g transform="translate(582,254) scale(1,1) translate(-582,-254)" style="transform:matrix(1, 0, 0, 1, 0, 0);animation-play-state:paused" ><defs style="animation-play-state:paused" ><linearGradient id="ldbk-photon-frjsg2k0wri-lg" x1="557" x2="1164" y1="0" y2="0" gradientUnits="userSpaceOnUse" style="animation-play-state:paused" ><stop stop-color="#1d3f72" offset="0" style="animation-play-state:paused" ></stop>

    
<stop stop-color="#34ffef" offset="1" style="animation-play-state:paused" ></stop></linearGradient>

  
<mask id="ldbk-photon-frjsg2k0wri-mask" style="animation-play-state:paused" ><g style="animation-play-state:paused" ><path d="M1464 -0.5 L570.9437283942029 -0.5 A15 15 0 0 1 570.9437283942029 30.5 L1464 30.5" fill="#fff" transform="matrix(1,0,0,1,31.036611557006836,0)" style="transform:matrix(1, 0, 0, 1, 31.0366, 0);animation-play-state:paused" ></path>
<path d="M1214.2031794602678 -0.5 L1234.4063589205357 -0.5 A15 15 0 0 1 1234.4063589205357 30.5 L1214.2031794602678 30.5 A15 15 0 0 1 1214.2031794602678 -0.5" fill="#000" transform="matrix(1,0,0,1,0,0)" opacity="1" style="transform:matrix(1, 0, 0, 1, 0, 0);animation-play-state:paused" ></path>
<path d="M1464 29.5 L517.5453630583202 29.5 A15 15 0 0 0 517.5453630583202 60.5 L1464 60.5" fill="#fff" transform="matrix(1,0,0,1,-22.443750381469727,0)" style="transform:matrix(1, 0, 0, 1, -22.4437, 0);animation-play-state:paused" ></path>
<path d="M617.8729587761325 29.5 L638.0764935959457 29.5 A15 15 0 0 1 638.0764935959457 60.5 L617.8729587761325 60.5 A15 15 0 0 1 617.8729587761325 29.5" fill="#fff" transform="matrix(1,0,0,1,0,0)" opacity="0.92437" style="transform:matrix(1, 0, 0, 1, 0, 0);opacity:0.92437;animation-play-state:paused" ></path>
<path d="M1464 59.5 L548.479390823111 59.5 A15 15 0 0 1 548.479390823111 90.5 L1464 90.5" fill="#fff" transform="matrix(1,0,0,1,9.09460735321045,0)" style="transform:matrix(1, 0, 0, 1, 9.09461, 0);animation-play-state:paused" ></path>
<path d="M1232.010014378075 59.5 L1270.0200287561502 59.5 A15 15 0 0 1 1270.0200287561502 90.5 L1232.010014378075 90.5 A15 15 0 0 1 1232.010014378075 59.5" fill="#000" transform="matrix(1,0,0,1,-374.9394226074219,0)" opacity="0.92437" style="transform:matrix(1, 0, 0, 1, -374.939, 0);opacity:0.92437;animation-play-state:paused" ></path>
<path d="M1464 89.5 L494.4839679436369 89.5 A15 15 0 0 0 494.4839679436369 120.5 L1464 120.5" fill="#fff" transform="matrix(1,0,0,1,-2.1331639289855957,0)" style="transform:matrix(1, 0, 0, 1, -2.13316, 0);animation-play-state:paused" ></path>
<path d="M600.3416437634093 89.5 L619.8809668581675 89.5 A15 15 0 0 1 619.8809668581675 120.5 L600.3416437634093 120.5 A15 15 0 0 1 600.3416437634093 89.5" fill="#fff" transform="matrix(1,0,0,1,0,0)" opacity="0.672269" style="transform:matrix(1, 0, 0, 1, 0, 0);opacity:0.672269;animation-play-state:paused" ></path>
<path d="M1464 119.5 L550.5671054624763 119.5 A15 15 0 0 1 550.5671054624763 150.5 L1464 150.5" fill="#fff" transform="matrix(1,0,0,1,26.129610061645508,0)" style="transform:matrix(1, 0, 0, 1, 26.1296, 0);animation-play-state:paused" ></path>
<path d="M1219.8561453769262 119.5 L1245.7122907538524 119.5 A15 15 0 0 1 1245.7122907538524 150.5 L1219.8561453769262 150.5 A15 15 0 0 1 1219.8561453769262 119.5" fill="#000" transform="matrix(1,0,0,1,-717.3767700195312,0)" opacity="0.420168" style="transform:matrix(1, 0, 0, 1, -717.377, 0);opacity:0.420168;animation-play-state:paused" ></path>
<path d="M1464 149.5 L508.4987109258549 149.5 A15 15 0 0 0 508.4987109258549 180.5 L1464 180.5" fill="#fff" transform="matrix(1,0,0,1,-4.3164215087890625,0)" style="transform:matrix(1, 0, 0, 1, -4.31642, 0);animation-play-state:paused" ></path>
<path d="M594.7300601672474 149.5 L620.6739100867402 149.5 A15 15 0 0 1 620.6739100867402 180.5 L594.7300601672474 180.5 A15 15 0 0 1 594.7300601672474 149.5" fill="#fff" transform="matrix(1,0,0,1,0,0)" opacity="0.336135" style="transform:matrix(1, 0, 0, 1, 0, 0);opacity:0.336135;animation-play-state:paused" ></path>
<path d="M1464 179.5 L541.3801210118198 179.5 A15 15 0 0 1 541.3801210118198 210.5 L1464 210.5" fill="#fff" transform="matrix(1,0,0,1,33.6957893371582,0)" style="transform:matrix(1, 0, 0, 1, 33.6958, 0);animation-play-state:paused" ></path>
<path d="M1223.2041695184073 179.5 L1252.4083390368146 179.5 A15 15 0 0 1 1252.4083390368146 210.5 L1223.2041695184073 210.5 A15 15 0 0 1 1223.2041695184073 179.5" fill="#000" transform="matrix(1,0,0,1,-164.4410858154297,0)" opacity="1" style="transform:matrix(1, 0, 0, 1, -164.441, 0);animation-play-state:paused" ></path>
<path d="M1464 209.5 L508.90080995930987 209.5 A15 15 0 0 0 508.90080995930987 240.5 L1464 240.5" fill="#fff" transform="matrix(1,0,0,1,-0.13595199584960938,0)" style="transform:matrix(1, 0, 0, 1, -0.135952, 0);animation-play-state:paused" ></path>
<path d="M620.2750611374225 209.5 L633.262714471527 209.5 A15 15 0 0 1 633.262714471527 240.5 L620.2750611374225 240.5 A15 15 0 0 1 620.2750611374225 209.5" fill="#fff" transform="matrix(1,0,0,1,0,0)" opacity="0.420168" style="transform:matrix(1, 0, 0, 1, 0, 0);opacity:0.420168;animation-play-state:paused" ></path>
<path d="M1464 239.5 L575.3929086237932 239.5 A15 15 0 0 1 575.3929086237932 270.5 L1464 270.5" fill="#fff" transform="matrix(1,0,0,1,27.576135635375977,0)" style="transform:matrix(1, 0, 0, 1, 27.5761, 0);animation-play-state:paused" ></path>
<path d="M1216.4621720138234 239.5 L1238.9243440276468 239.5 A15 15 0 0 1 1238.9243440276468 270.5 L1216.4621720138234 270.5 A15 15 0 0 1 1216.4621720138234 239.5" fill="#000" transform="matrix(1,0,0,1,-221.30162048339844,0)" opacity="1" style="transform:matrix(1, 0, 0, 1, -221.302, 0);animation-play-state:paused" ></path>
<path d="M1464 269.5 L566.6216621932153 269.5 A15 15 0 0 0 566.6216621932153 300.5 L1464 300.5" fill="#fff" transform="matrix(1,0,0,1,-36.37017059326172,0)" style="transform:matrix(1, 0, 0, 1, -36.3702, 0);animation-play-state:paused" ></path>
<path d="M627.8569462103367 269.5 L644.5601363951628 269.5 A15 15 0 0 1 644.5601363951628 300.5 L627.8569462103367 300.5 A15 15 0 0 1 627.8569462103367 269.5" fill="#fff" transform="matrix(1,0,0,1,0,0)" opacity="1" style="transform:matrix(1, 0, 0, 1, 0, 0);animation-play-state:paused" ></path>
<path d="M1464 299.5 L586.7042732089889 299.5 A15 15 0 0 1 586.7042732089889 330.5 L1464 330.5" fill="#fff" transform="matrix(1,0,0,1,9.012275695800781,0)" style="transform:matrix(1, 0, 0, 1, 9.01228, 0);animation-play-state:paused" ></path>
<path d="M1232.1763654446972 299.5 L1270.3527308893945 299.5 A15 15 0 0 1 1270.3527308893945 330.5 L1232.1763654446972 330.5 A15 15 0 0 1 1232.1763654446972 299.5" fill="#000" transform="matrix(1,0,0,1,-696.8119506835938,0)" opacity="0.336135" style="transform:matrix(1, 0, 0, 1, -696.812, 0);opacity:0.336135;animation-play-state:paused" ></path>
<path d="M1464 329.5 L564.0500906053034 329.5 A15 15 0 0 0 564.0500906053034 360.5 L1464 360.5" fill="#fff" transform="matrix(1,0,0,1,-40.35919189453125,0)" style="transform:matrix(1, 0, 0, 1, -40.3592, 0);animation-play-state:paused" ></path>
<path d="M676.6780752433182 329.5 L689.1713737577388 329.5 A15 15 0 0 1 689.1713737577388 360.5 L676.6780752433182 360.5 A15 15 0 0 1 676.6780752433182 329.5" fill="#fff" transform="matrix(1,0,0,1,0,0)" opacity="0.2521" style="transform:matrix(1, 0, 0, 1, 0, 0);opacity:0.2521;animation-play-state:paused" ></path>
<path d="M1464 359.5 L607.5576754150559 359.5 A15 15 0 0 1 607.5576754150559 390.5 L1464 390.5" fill="#fff" transform="matrix(1,0,0,1,39.95835876464844,0)" style="transform:matrix(1, 0, 0, 1, 39.9584, 0);animation-play-state:paused" ></path>
<path d="M1215.0409846923967 359.5 L1236.0819693847934 359.5 A15 15 0 0 1 1236.0819693847934 390.5 L1215.0409846923967 390.5 A15 15 0 0 1 1215.0409846923967 359.5" fill="#000" transform="matrix(1,0,0,1,-428.565673828125,0)" opacity="0.924369" style="transform:matrix(1, 0, 0, 1, -428.566, 0);opacity:0.924369;animation-play-state:paused" ></path>
<path d="M1464 389.5 L561.2946758510516 389.5 A15 15 0 0 0 561.2946758510516 420.5 L1464 420.5" fill="#fff" transform="matrix(1,0,0,1,-2.3849027156829834,0)" style="transform:matrix(1, 0, 0, 1, -2.3849, 0);animation-play-state:paused" ></path>
<path d="M679.8168583138888 389.5 L702.8191439969723 389.5 A15 15 0 0 1 702.8191439969723 420.5 L679.8168583138888 420.5 A15 15 0 0 1 679.8168583138888 389.5" fill="#fff" transform="matrix(1,0,0,1,0,0)" opacity="0.588235" style="transform:matrix(1, 0, 0, 1, 0, 0);opacity:0.588235;animation-play-state:paused" ></path>
<path d="M1464 419.5 L611.0589734133944 419.5 A15 15 0 0 1 611.0589734133944 450.5 L1464 450.5" fill="#fff" transform="matrix(1,0,0,1,28.916032791137695,0)" style="transform:matrix(1, 0, 0, 1, 28.916, 0);animation-play-state:paused" ></path>
<path d="M1227.775916258379 419.5 L1261.5518325167582 419.5 A15 15 0 0 1 1261.5518325167582 450.5 L1227.775916258379 450.5 A15 15 0 0 1 1227.775916258379 419.5" fill="#000" transform="matrix(1,0,0,1,-1201.4400634765625,0)" opacity="0.0840337" style="transform:matrix(1, 0, 0, 1, -1201.44, 0);opacity:0.0840337;animation-play-state:paused" ></path>
<path d="M1464 449.5 L559.2192787054091 449.5 A15 15 0 0 0 559.2192787054091 480.5 L1464 480.5" fill="#fff" transform="matrix(1,0,0,1,-7.049912452697754,0)" style="transform:matrix(1, 0, 0, 1, -7.04991, 0);animation-play-state:paused" ></path>
<path d="M629.0210236922103 449.5 L666.7904089864481 449.5 A15 15 0 0 1 666.7904089864481 480.5 L629.0210236922103 480.5 A15 15 0 0 1 629.0210236922103 449.5" fill="#fff" transform="matrix(1,0,0,1,0,0)" opacity="0.0840326" style="transform:matrix(1, 0, 0, 1, 0, 0);opacity:0.0840326;animation-play-state:paused" ></path>
<path d="M1464 479.5 L586.2248462697969 479.5 A15 15 0 0 1 586.2248462697969 510.5 L1464 510.5" fill="#fff" transform="matrix(1,0,0,1,4.07515287399292,0)" style="transform:matrix(1, 0, 0, 1, 4.07515, 0);animation-play-state:paused" ></path>
<path d="M1227.0433789231797 479.5 L1260.0867578463594 479.5 A15 15 0 0 1 1260.0867578463594 510.5 L1227.0433789231797 510.5 A15 15 0 0 1 1227.0433789231797 479.5" fill="#000" transform="matrix(1,0,0,1,-786.0724487304688,0)" opacity="0.504202" style="transform:matrix(1, 0, 0, 1, -786.072, 0);opacity:0.504202;animation-play-state:paused" ></path></g></mask></defs>


<rect x="0" y="0" width="1164" height="508" fill="url(#ldbk-photon-frjsg2k0wri-lg)" mask="url(#ldbk-photon-frjsg2k0wri-mask)" style="animation-play-state:paused" ></rect></g></svg>