<?xml version="1.0" encoding="utf-8"?><svg xml:space="preserve" viewBox="0 0 100 100" y="0px" x="0px" xmlns:xlink="http://www.w3.org/1999/xlink" xmlns="http://www.w3.org/2000/svg" id="圖層_1" version="1.1" width="200px" height="200px" style="width:100%;height:100%;background-size:initial;background-repeat-y:initial;background-repeat-x:initial;background-position-y:initial;background-position-x:initial;background-origin:initial;background-image:initial;background-color:rgb(255, 255, 255);background-clip:initial;background-attachment:initial;animation-play-state:paused" ><g class="ldl-scale" style="transform-origin:50% 50%;transform:rotate(0deg) scale(0.8, 0.8);animation-play-state:paused" ><g style="animation-play-state:paused" ><circle r="13.28" cy="21.64" cx="29.28" fill="#333435" style="fill:rgb(51, 52, 53);animation-play-state:paused" ></circle>
<circle r="13.28" cy="21.64" cx="70.72" fill="#333435" style="fill:rgb(51, 52, 53);animation-play-state:paused" ></circle></g>
<g style="animation-play-state:paused" ><path d="M16,21.64v42.97v10.45c0,9.16,7.43,16.59,16.59,16.59h34.83c9.16,0,16.59-7.43,16.59-16.59V64.61V21.64H16z" fill="#333435" style="fill:rgb(51, 52, 53);animation-play-state:paused" ></path>
<ellipse ry="14.3" rx="16.94" cy="56.81" cx="50" fill="#F4E6C8" style="fill:rgb(244, 230, 200);animation-play-state:paused" ></ellipse>
<path d="M76.17,69.61c-5.71,4.52-11,7.06-14.62,8.49c-0.04,0.02-0.08,0.03-0.12,0.05c-7.34,2.91-15.52,2.91-22.86,0 c-0.04-0.02-0.08-0.03-0.12-0.05c-3.62-1.43-8.91-3.97-14.62-8.49c-0.01,0-0.02,0-0.03,0c0.63,1.1,1.49,2.46,2.65,3.91 c0.44,0.55,1.92,2.37,4.39,4.46c4.38,3.72,8.59,5.53,9.48,5.91c2.59,1.09,5.6,2.5,9.83,2.5s6.93-1.41,9.53-2.5 c0.89-0.38,5.1-2.19,9.48-5.91c2.47-2.1,3.96-3.92,4.39-4.46c1.15-1.45,2.02-2.81,2.65-3.91C76.19,69.61,76.18,69.61,76.17,69.61z" fill="#FFFFFF" style="fill:rgb(255, 255, 255);animation-play-state:paused" ></path></g>
<g style="animation-play-state:paused" ><path d="M40,57.99 c4.08,5.65,5.27,2.51,8.61,0.41c0.82-0.52,2.01-0.59,2.78,0c2.75,2.1,4.52,5.24,8.61-0.41" stroke-miterlimit="10" stroke-linecap="round" stroke-width="3.5" stroke="#000000" fill="none" style="animation-play-state:paused" ></path>
<line y2="57.99" x2="50" y1="50.75" x1="50" stroke-miterlimit="10" stroke-linecap="round" stroke-width="3.5" stroke="#000000" fill="none" style="animation-play-state:paused" ></line>
<ellipse ry="3.98" rx="5" cy="50.21" cx="50" style="animation-play-state:paused" ></ellipse></g>
<g style="animation-play-state:paused" ><circle r="6.5" cy="36.88" cx="65.53" fill="#FFFFFF" style="fill:rgb(255, 255, 255);animation-play-state:paused" ></circle>
<circle r="4.11" cy="36.86" cx="65.53" style="animation-play-state:paused" ></circle></g>
<g style="animation-play-state:paused" ><circle r="6.5" cy="36.88" cx="34.43" fill="#FFFFFF" style="fill:rgb(255, 255, 255);animation-play-state:paused" ></circle>
<circle r="4.11" cy="36.86" cx="34.43" style="animation-play-state:paused" ></circle></g>
<g style="animation-play-state:paused" ><ellipse ry="1.99" rx="3.63" cy="46.22" cx="74.83" fill="#C97880" style="fill:rgb(201, 120, 128);animation-play-state:paused" ></ellipse>
<ellipse ry="1.99" rx="3.63" cy="46.22" cx="25.13" fill="#C97880" style="fill:rgb(201, 120, 128);animation-play-state:paused" ></ellipse></g>
<metadata xmlns:d="https://loading.io/stock/" style="animation-play-state:paused" ><d:name style="animation-play-state:paused" >animal</d:name>


<d:tags style="animation-play-state:paused" >animal,bear,taiwan,black,wild,cute</d:tags>


<d:license style="animation-play-state:paused" >by</d:license>


<d:slug style="animation-play-state:paused" >ol3rh6</d:slug></metadata></g><!-- generated by https://loading.io/ --></svg>