<svg xmlns="http://www.w3.org/2000/svg" version="1.1" xmlns:xlink="http://www.w3.org/1999/xlink" xmlns:svgjs="http://svgjs.com/svgjs" width="1440" height="560" preserveAspectRatio="none" viewBox="0 0 1440 560"><g mask="url(&quot;#SvgjsMask1000&quot;)" fill="none"><rect width="1440" height="560" x="0" y="0" fill="#1e3266"></rect><path d="M1488 560L0 560 L0 344.94Q74.2 299.14, 120 373.34Q133.45 266.79, 240 280.24Q282.28 250.52, 312 292.8Q355.48 264.28, 384 307.76Q460.13 263.89, 504 340.02Q570.61 286.63, 624 353.23Q655.86 265.09, 744 296.94Q817.58 250.51, 864 324.09Q938.36 278.44, 984 352.8Q989.61 286.41, 1056 292.02Q1110.63 226.65, 1176 281.28Q1266.7 251.98, 1296 342.68Q1311.76 286.44, 1368 302.19Q1435.3 249.49, 1488 316.78z" fill="#182f5d"></path><path d="M1464 560L0 560 L0 379.24Q65.94 373.19, 72 439.13Q91.06 386.19, 144 405.24Q189.59 378.83, 216 424.41Q235.27 371.68, 288 390.95Q329.41 312.36, 408 353.76Q455.49 329.25, 480 376.73Q536.15 360.88, 552 417.03Q580.24 325.26, 672 353.5Q722.5 332, 744 382.5Q821.12 339.62, 864 416.74Q872.5 353.24, 936 361.74Q977.19 330.93, 1008 372.12Q1055.1 347.22, 1080 394.32Q1134.27 328.59, 1200 382.85Q1262.63 373.48, 1272 436.11Q1296.85 388.96, 1344 413.8Q1394.14 343.94, 1464 394.09z" fill="#25467d"></path><path d="M1560 560L0 560 L0 511.93Q37.33 477.26, 72 514.59Q69.95 440.54, 144 438.49Q172.3 394.79, 216 423.09Q277.01 412.1, 288 473.1Q307.68 420.78, 360 440.46Q427.64 388.1, 480 455.73Q522.97 426.7, 552 469.67Q633.5 431.17, 672 512.67Q702.86 471.52, 744 502.38Q791.43 429.81, 864 477.25Q917.16 410.41, 984 463.58Q1044.44 452.02, 1056 512.46Q1075.69 460.15, 1128 479.84Q1167.59 399.42, 1248 439.01Q1290.5 409.51, 1320 452.02Q1411.1 423.12, 1440 514.21Q1460.94 415.16, 1560 436.1z" fill="#356cb1"></path><path d="M1464 560L0 560 L0 527.75Q58.04 513.79, 72 571.82Q98.86 526.68, 144 553.54Q172.1 509.64, 216 537.74Q292.82 494.56, 336 571.37Q372.48 487.85, 456 524.32Q508.06 504.38, 528 556.45Q554.82 463.27, 648 490.09Q716.03 438.12, 768 506.14Q809.53 475.67, 840 517.2Q887.58 444.78, 960 492.36Q1060.71 473.07, 1080 573.78Q1081.13 502.91, 1152 504.05Q1214.18 446.23, 1272 508.41Q1338.45 454.86, 1392 521.31Q1436.68 493.99, 1464 538.67z" fill="white"></path></g><defs><mask id="SvgjsMask1000"><rect width="1440" height="560" fill="#ffffff"></rect></mask></defs></svg>